<svg width="24" height="24" viewBox="0 0 24 24" fill="none" xmlns="http://www.w3.org/2000/svg">
<path d="M12 21C16.9706 21 21 16.9706 21 12C21 7.02944 16.9706 3 12 3C7.02944 3 3 7.02944 3 12C3 16.9706 7.02944 21 12 21Z" fill="#B1B5C3" stroke="#B1B5C3" stroke-width="2" stroke-linecap="round" stroke-linejoin="round"/>
<path d="M9.08984 9.00008C9.32495 8.33175 9.789 7.76819 10.3998 7.40921C11.0106 7.05024 11.7287 6.91902 12.427 7.03879C13.1253 7.15857 13.7587 7.52161 14.2149 8.06361C14.6712 8.60561 14.9209 9.2916 14.9198 10.0001C14.9198 12.0001 11.9198 13.0001 11.9198 13.0001" stroke="#23262F" stroke-width="2" stroke-linecap="round" stroke-linejoin="round"/>
<path d="M12 17H12.01" stroke="#23262F" stroke-width="2" stroke-linecap="round" stroke-linejoin="round"/>
</svg>
