<svg width="24" height="24" viewBox="0 0 24 24" fill="none" xmlns="http://www.w3.org/2000/svg">
<g clip-path="url(#clip0_1129_503)">
<path d="M16.2535 7.74604C15.1741 6.66667 13.6503 5.96826 11.9995 5.96826C10.3487 5.96826 8.82492 6.63493 7.74555 7.74604C6.66619 8.8254 5.96777 10.3492 5.96777 12C5.96777 13.6508 6.66619 15.1746 7.74555 16.254C8.82492 17.3333 10.3487 18.0318 11.9995 18.0318C13.6503 18.0318 15.1741 17.3651 16.2535 16.254C17.3329 15.1746 18.0313 13.6508 18.0313 12C18.0313 10.3492 17.3646 8.8254 16.2535 7.74604ZM15.1106 15.1111C14.317 15.9048 13.2059 16.381 11.9995 16.381C10.7932 16.381 9.68206 15.9048 8.88841 15.1111C8.09476 14.3175 7.61857 13.2064 7.61857 12C7.61857 10.7937 8.09476 9.68255 8.88841 8.8889C9.68206 8.09525 10.7932 7.61906 11.9995 7.61906C13.2059 7.61906 14.317 8.09525 15.1106 8.8889C15.9043 9.68255 16.3805 10.7937 16.3805 12C16.3805 13.2064 15.9043 14.3175 15.1106 15.1111Z" fill="#777E90"/>
<path d="M23.1742 11.1748H20.7297C20.2853 11.1748 19.9043 11.5558 19.9043 12.0002C19.9043 12.4446 20.2853 12.8256 20.7297 12.8256H23.1742C23.6186 12.8256 23.9995 12.4446 23.9995 12.0002C23.9995 11.5558 23.6186 11.1748 23.1742 11.1748Z" fill="#777E90"/>
<path d="M12.0002 19.9048C11.5558 19.9048 11.1748 20.2857 11.1748 20.7302V23.1746C11.1748 23.6191 11.5558 24 12.0002 24C12.4446 24 12.8256 23.6191 12.8256 23.1746V20.7302C12.8256 20.2857 12.4446 19.9048 12.0002 19.9048Z" fill="#777E90"/>
<path d="M20.4766 19.3332L18.7306 17.5872C18.4448 17.2698 17.9052 17.2698 17.5877 17.5872C17.2702 17.9047 17.2702 18.4126 17.5877 18.7301L19.3337 20.4761C19.6512 20.7936 20.1591 20.7936 20.4766 20.4761C20.7941 20.1586 20.7941 19.6507 20.4766 19.3332Z" fill="#777E90"/>
<path d="M12.0002 0C11.5558 0 11.1748 0.380952 11.1748 0.825396V3.26984C11.1748 3.71428 11.5558 4.09523 12.0002 4.09523C12.4446 4.09523 12.8256 3.71428 12.8256 3.26984V0.825396C12.8256 0.380952 12.4446 0 12.0002 0Z" fill="#777E90"/>
<path d="M20.5078 3.52374C20.1904 3.20628 19.6824 3.20628 19.365 3.52374L17.619 5.26977C17.3015 5.58723 17.3015 6.09517 17.619 6.41263C17.9047 6.73009 18.4444 6.73009 18.7618 6.41263L20.5078 4.6666C20.8253 4.34914 20.8253 3.8412 20.5078 3.52374Z" fill="#777E90"/>
<path d="M3.26984 11.1748H0.825396C0.380952 11.1748 0 11.5558 0 12.0002C0 12.4446 0.349206 12.8256 0.825396 12.8256H3.26984C3.71428 12.8256 4.09523 12.4446 4.09523 12.0002C4.09523 11.5558 3.71428 11.1748 3.26984 11.1748Z" fill="#777E90"/>
<path d="M6.38089 17.5872C6.09518 17.2698 5.55549 17.2698 5.23803 17.5872L3.492 19.3332C3.17454 19.6507 3.17454 20.1586 3.492 20.4761C3.80946 20.7936 4.3174 20.7936 4.63486 20.4761L6.38089 18.7301C6.69835 18.4126 6.69835 17.9047 6.38089 17.5872Z" fill="#777E90"/>
<path d="M6.38089 5.26977L4.63486 3.52374C4.3174 3.20628 3.80946 3.20628 3.492 3.52374C3.17454 3.8412 3.17454 4.34914 3.492 4.6666L5.23803 6.41263C5.55549 6.73009 6.06343 6.73009 6.38089 6.41263C6.69835 6.09517 6.69835 5.58723 6.38089 5.26977Z" fill="#777E90"/>
</g>
<defs>
<clipPath id="clip0_1129_503">
<rect width="24" height="24" fill="white"/>
</clipPath>
</defs>
</svg>
